<svg id="Layer_1" data-name="Layer 1" xmlns="http://www.w3.org/2000/svg" viewBox="0 0 487.75 252.45"><defs><style>.cls-1{fill:#6c1cb8;}</style></defs><path class="cls-1" d="M36.1,256l26.08,26.2c107.52,108,282.43,108,389.94,0l26-26.2L452,229.8c-107.51-108-282.42-108-389.94,0Zm221,126.2A293.13,293.13,0,0,1,48.74,295.6L16,262.7a9.63,9.63,0,0,1,0-13.5l32.75-32.9c114.88-115.4,301.84-115.4,416.72,0l32.75,32.9a9.62,9.62,0,0,1,0,13.5l-32.75,32.9A293.13,293.13,0,0,1,257.1,382.2Z" transform="translate(-13.23 -129.75)"/><path class="cls-1" d="M257.1,183.5c-39.82,0-72.17,32.5-72.17,72.5s32.35,72.5,72.17,72.5S329.27,296,329.27,256,296.92,183.5,257.1,183.5Zm0,164C206.83,347.5,166,306.4,166,256s40.92-91.5,91.09-91.5,91.09,41.1,91.09,91.5S307.37,347.5,257.1,347.5Z" transform="translate(-13.23 -129.75)"/><path class="cls-1" d="M-261.12,225.91" transform="translate(-13.23 -129.75)"/></svg>