<svg id="Layer_1" data-name="Layer 1" xmlns="http://www.w3.org/2000/svg" viewBox="0 0 925 925"><defs><style>.cls-1{fill:none;}.cls-2{fill:#6c1cb8;}</style></defs><rect class="cls-1" width="925" height="925"/><path class="cls-2" d="M300,50V75H275V68.87C275,58.44,286.19,50,300,50Z"/><rect class="cls-2" x="300" y="50" width="25" height="25"/><rect class="cls-2" x="325" y="50" width="25" height="25"/><path class="cls-2" d="M350,75V50s16.34,7.82,25,1C375,51,375.43,75,350,75Z"/><path class="cls-2" d="M450,50V75H425V68.87C425,58.44,436.19,50,450,50Z"/><path class="cls-2" d="M475,75H450V50h6.13C466.55,50,475,61.19,475,75Z"/><path class="cls-2" d="M525,50V75s-16.34-7.82-25-1C500,74,499.57,50,525,50Z"/><path class="cls-2" d="M525,75V50s16.34,7.82,25,1C550,51,550.43,75,525,75Z"/><path class="cls-2" d="M625,50V75H600V68.87C600,58.44,611.19,50,625,50Z"/><path class="cls-2" d="M650,75H625V50h6.13C641.55,50,650,61.19,650,75Z"/><path class="cls-2" d="M275,75h25s-7.83,16.34-1,25C299,100,275,100.43,275,75Z"/><path class="cls-2" d="M425,75h25v25h-6.13C433.45,100,425,88.81,425,75Z"/><rect class="cls-2" x="450" y="75" width="25" height="25"/><path class="cls-2" d="M500,100H475V75h6.13C491.55,75,500,86.19,500,100Z"/><path class="cls-2" d="M575,75v25s-16.34-7.82-25-1C550,99,549.57,75,575,75Z"/><rect class="cls-2" x="575" y="75" width="25" height="25"/><rect class="cls-2" x="600" y="75" width="25" height="25"/><rect class="cls-2" x="625" y="75" width="25" height="25"/><path class="cls-2" d="M675,100H650V75h6.13C666.55,75,675,86.19,675,100Z"/><path class="cls-2" d="M412.5,100A12.5,12.5,0,1,1,400,112.5,12.5,12.5,0,0,1,412.5,100Z"/><path class="cls-2" d="M450,100h25v25h-6.13C458.45,125,450,113.81,450,100Z"/><rect class="cls-2" x="475" y="100" width="25" height="25"/><path class="cls-2" d="M550,125H525s7.82-16.34,1-25C526,100,550,99.57,550,125Z"/><path class="cls-2" d="M625,100h25v25h-6.13C633.45,125,625,113.81,625,100Z"/><path class="cls-2" d="M650,125V100h25v6.13C675,116.55,663.81,125,650,125Z"/><path class="cls-2" d="M300,125v25H275v-6.13C275,133.44,286.19,125,300,125Z"/><rect class="cls-2" x="300" y="125" width="25" height="25"/><rect class="cls-2" x="325" y="125" width="25" height="25"/><rect class="cls-2" x="350" y="125" width="25" height="25"/><path class="cls-2" d="M375,150V125s16.34,7.82,25,1C400,126,400.43,150,375,150Z"/><rect class="cls-2" x="475" y="125" width="25" height="25"/><rect class="cls-2" x="525" y="125" width="25" height="25"/><path class="cls-2" d="M600,150H575s7.82-16.34,1-25C576,125,600,124.57,600,150Z"/><path class="cls-2" d="M275,150h25v25h-6.13C283.45,175,275,163.81,275,150Z"/><rect class="cls-2" x="300" y="150" width="25" height="25"/><path class="cls-2" d="M350,150h25s-7.83,16.34-1,25C374,175,350,175.43,350,150Z"/><path class="cls-2" d="M475,150v25s-16.34-7.82-25-1C450,174,449.57,150,475,150Z"/><rect class="cls-2" x="475" y="150" width="25" height="25"/><path class="cls-2" d="M525,150h25s-7.83,16.34-1,25C549,175,525,175.43,525,150Z"/><path class="cls-2" d="M575,150h25v25h-6.13C583.45,175,575,163.81,575,150Z"/><path class="cls-2" d="M625,175H600V150h6.13C616.55,150,625,161.19,625,175Z"/><path class="cls-2" d="M275,200H250s7.82-16.34,1-25C251,175,275,174.57,275,200Z"/><rect class="cls-2" x="300" y="175" width="25" height="25"/><path class="cls-2" d="M475,175h25v25h-6.13C483.45,200,475,188.81,475,175Z"/><path class="cls-2" d="M525,200H500V175h6.13C516.55,175,525,186.19,525,200Z"/><path class="cls-2" d="M575,200H550s7.82-16.34,1-25C551,175,575,174.57,575,200Z"/><rect class="cls-2" x="600" y="175" width="25" height="25"/><path class="cls-2" d="M625,200V175s16.34,7.82,25,1C650,176,650.43,200,625,200Z"/><path class="cls-2" d="M250,200h25s-7.83,16.34-1,25C274,225,250,225.43,250,200Z"/><path class="cls-2" d="M300,200h25s-7.83,16.34-1,25C324,225,300,225.43,300,200Z"/><path class="cls-2" d="M375,225H350s7.82-16.34,1-25C351,200,375,199.57,375,225Z"/><path class="cls-2" d="M425,225H400s7.82-16.34,1-25C401,200,425,199.57,425,225Z"/><path class="cls-2" d="M462.5,200A12.5,12.5,0,1,1,450,212.5,12.5,12.5,0,0,1,462.5,200Z"/><rect class="cls-2" x="500" y="200" width="25" height="25"/><rect class="cls-2" x="550" y="200" width="25" height="25"/><path class="cls-2" d="M600,200h25s-7.83,16.34-1,25C624,225,600,225.43,600,200Z"/><path class="cls-2" d="M675,225H650s7.82-16.34,1-25C651,200,675,199.57,675,225Z"/><rect class="cls-2" x="350" y="225" width="25" height="25"/><rect class="cls-2" x="400" y="225" width="25" height="25"/><path class="cls-2" d="M500,225v25s-16.34-7.82-25-1C475,249,474.57,225,500,225Z"/><rect class="cls-2" x="500" y="225" width="25" height="25"/><rect class="cls-2" x="525" y="225" width="25" height="25"/><rect class="cls-2" x="550" y="225" width="25" height="25"/><path class="cls-2" d="M600,250H575V225h6.13C591.55,225,600,236.19,600,250Z"/><path class="cls-2" d="M650,225h25s-7.83,16.34-1,25C674,250,650,250.43,650,225Z"/><path class="cls-2" d="M75,275H50s7.82-16.34,1-25C51,250,75,249.57,75,275Z"/><path class="cls-2" d="M150,275H125s7.82-16.34,1-25C126,250,150,249.57,150,275Z"/><path class="cls-2" d="M200,250v25s-16.34-7.82-25-1C175,274,174.57,250,200,250Z"/><path class="cls-2" d="M200,275V250s16.34,7.82,25,1C225,251,225.43,275,200,275Z"/><path class="cls-2" d="M275,275H250s7.82-16.34,1-25C251,250,275,249.57,275,275Z"/><path class="cls-2" d="M350,250v25s-16.34-7.82-25-1C325,274,324.57,250,350,250Z"/><rect class="cls-2" x="350" y="250" width="25" height="25"/><rect class="cls-2" x="375" y="250" width="25" height="25"/><rect class="cls-2" x="400" y="250" width="25" height="25"/><rect class="cls-2" x="425" y="250" width="25" height="25"/><path class="cls-2" d="M475,275H450V250h6.13C466.55,250,475,261.19,475,275Z"/><path class="cls-2" d="M525,250h25s-7.83,16.34-1,25C549,275,525,275.43,525,250Z"/><path class="cls-2" d="M575,250h25s-7.83,16.34-1,25C599,275,575,275.43,575,250Z"/><path class="cls-2" d="M700,275H675s7.82-16.34,1-25C676,250,700,249.57,700,275Z"/><path class="cls-2" d="M750,275H725s7.82-16.34,1-25C726,250,750,249.57,750,275Z"/><rect class="cls-2" x="50" y="275" width="25" height="25"/><rect class="cls-2" x="75" y="275" width="25" height="25"/><rect class="cls-2" x="100" y="275" width="25" height="25"/><rect class="cls-2" x="125" y="275" width="25" height="25"/><path class="cls-2" d="M150,300V275s16.34,7.82,25,1C175,276,175.43,300,150,300Z"/><path class="cls-2" d="M250,275v25s-16.34-7.82-25-1C225,299,224.57,275,250,275Z"/><rect class="cls-2" x="250" y="275" width="25" height="25"/><rect class="cls-2" x="275" y="275" width="25" height="25"/><path class="cls-2" d="M325,300H300V275h6.13C316.55,275,325,286.19,325,300Z"/><rect class="cls-2" x="350" y="275" width="25" height="25"/><path class="cls-2" d="M400,275h25s-7.83,16.34-1,25C424,300,400,300.43,400,275Z"/><rect class="cls-2" x="450" y="275" width="25" height="25"/><path class="cls-2" d="M575,300H550s7.82-16.34,1-25C551,275,575,274.57,575,300Z"/><path class="cls-2" d="M625,300H600s7.82-16.34,1-25C601,275,625,274.57,625,300Z"/><path class="cls-2" d="M675,275v25H650v-6.13C650,283.44,661.19,275,675,275Z"/><rect class="cls-2" x="675" y="275" width="25" height="25"/><rect class="cls-2" x="700" y="275" width="25" height="25"/><rect class="cls-2" x="725" y="275" width="25" height="25"/><path class="cls-2" d="M850,275v25s-16.34-7.82-25-1C825,299,824.57,275,850,275Z"/><path class="cls-2" d="M875,300H850V275h6.13C866.55,275,875,286.19,875,300Z"/><path class="cls-2" d="M50,300H75v25H68.87C58.45,325,50,313.81,50,300Z"/><path class="cls-2" d="M75,325V300h25v6.13C100,316.55,88.81,325,75,325Z"/><path class="cls-2" d="M125,300h25s-7.83,16.34-1,25C149,325,125,325.43,125,300Z"/><path class="cls-2" d="M212.5,300A12.5,12.5,0,1,1,200,312.5,12.5,12.5,0,0,1,212.5,300Z"/><rect class="cls-2" x="275" y="300" width="25" height="25"/><rect class="cls-2" x="300" y="300" width="25" height="25"/><rect class="cls-2" x="325" y="300" width="25" height="25"/><rect class="cls-2" x="350" y="300" width="25" height="25"/><path class="cls-2" d="M450,300h25v25h-6.13C458.45,325,450,313.81,450,300Z"/><path class="cls-2" d="M500,325H475V300h6.13C491.55,300,500,311.19,500,325Z"/><path class="cls-2" d="M550,300v25s-16.34-7.82-25-1C525,324,524.57,300,550,300Z"/><rect class="cls-2" x="550" y="300" width="25" height="25"/><rect class="cls-2" x="575" y="300" width="25" height="25"/><path class="cls-2" d="M600,325V300h25v6.13C625,316.55,613.81,325,600,325Z"/><rect class="cls-2" x="650" y="300" width="25" height="25"/><path class="cls-2" d="M725,300h25v25h-6.13C733.45,325,725,313.81,725,300Z"/><path class="cls-2" d="M775,325H750V300h6.13C766.55,300,775,311.19,775,325Z"/><path class="cls-2" d="M812.5,300A12.5,12.5,0,1,1,800,312.5,12.5,12.5,0,0,1,812.5,300Z"/><rect class="cls-2" x="850" y="300" width="25" height="25"/><path class="cls-2" d="M275,325v25s-16.34-7.82-25-1C250,349,249.57,325,275,325Z"/><path class="cls-2" d="M275,350V325h25v6.13C300,341.55,288.81,350,275,350Z"/><path class="cls-2" d="M325,325h25v25h-6.13C333.45,350,325,338.81,325,325Z"/><rect class="cls-2" x="350" y="325" width="25" height="25"/><path class="cls-2" d="M412.5,325A12.5,12.5,0,1,1,400,337.5,12.5,12.5,0,0,1,412.5,325Z"/><path class="cls-2" d="M475,325h25s-7.83,16.34-1,25C499,350,475,350.43,475,325Z"/><path class="cls-2" d="M650,325v25H625v-6.13C625,333.44,636.19,325,650,325Z"/><rect class="cls-2" x="650" y="325" width="25" height="25"/><path class="cls-2" d="M725,350H700s7.82-16.34,1-25C701,325,725,324.57,725,350Z"/><rect class="cls-2" x="750" y="325" width="25" height="25"/><path class="cls-2" d="M800,350H775V325h6.13C791.55,325,800,336.19,800,350Z"/><rect class="cls-2" x="850" y="325" width="25" height="25"/><path class="cls-2" d="M62.5,350A12.5,12.5,0,1,1,50,362.5,12.5,12.5,0,0,1,62.5,350Z"/><path class="cls-2" d="M125,375H100s7.82-16.34,1-25C101,350,125,349.57,125,375Z"/><path class="cls-2" d="M175,350v25s-16.34-7.82-25-1C150,374,149.57,350,175,350Z"/><rect class="cls-2" x="175" y="350" width="25" height="25"/><rect class="cls-2" x="200" y="350" width="25" height="25"/><path class="cls-2" d="M225,375V350s16.34,7.82,25,1C250,351,250.43,375,225,375Z"/><rect class="cls-2" x="350" y="350" width="25" height="25"/><path class="cls-2" d="M537.5,350A12.5,12.5,0,1,1,525,362.5,12.5,12.5,0,0,1,537.5,350Z"/><rect class="cls-2" x="625" y="350" width="25" height="25"/><rect class="cls-2" x="650" y="350" width="25" height="25"/><rect class="cls-2" x="675" y="350" width="25" height="25"/><rect class="cls-2" x="700" y="350" width="25" height="25"/><rect class="cls-2" x="750" y="350" width="25" height="25"/><path class="cls-2" d="M775,375V350h25v6.13C800,366.55,788.81,375,775,375Z"/><path class="cls-2" d="M850,350v25H825v-6.13C825,358.44,836.19,350,850,350Z"/><rect class="cls-2" x="850" y="350" width="25" height="25"/><path class="cls-2" d="M100,375h25s-7.83,16.34-1,25C124,400,100,400.43,100,375Z"/><path class="cls-2" d="M275,375v25H250v-6.13C250,383.44,261.19,375,275,375Z"/><path class="cls-2" d="M300,400H275V375h6.13C291.55,375,300,386.19,300,400Z"/><rect class="cls-2" x="350" y="375" width="25" height="25"/><path class="cls-2" d="M375,400V375s16.34,7.82,25,1C400,376,400.43,400,375,400Z"/><path class="cls-2" d="M450,375v25s-16.34-7.82-25-1C425,399,424.57,375,450,375Z"/><path class="cls-2" d="M450,400V375s16.34,7.82,25,1C475,376,475.43,400,450,400Z"/><path class="cls-2" d="M600,375v25s-16.34-7.82-25-1C575,399,574.57,375,600,375Z"/><rect class="cls-2" x="600" y="375" width="25" height="25"/><rect class="cls-2" x="625" y="375" width="25" height="25"/><rect class="cls-2" x="700" y="375" width="25" height="25"/><path class="cls-2" d="M750,375h25s-7.83,16.34-1,25C774,400,750,400.43,750,375Z"/><path class="cls-2" d="M825,375v25H800v-6.13C800,383.44,811.19,375,825,375Z"/><rect class="cls-2" x="825" y="375" width="25" height="25"/><path class="cls-2" d="M850,400V375h25v6.13C875,391.55,863.81,400,850,400Z"/><path class="cls-2" d="M75,425H50s7.82-16.34,1-25C51,400,75,399.57,75,425Z"/><path class="cls-2" d="M175,400v25s-16.34-7.82-25-1C150,424,149.57,400,175,400Z"/><rect class="cls-2" x="175" y="400" width="25" height="25"/><path class="cls-2" d="M200,425V400s16.34,7.82,25,1C225,401,225.43,425,200,425Z"/><path class="cls-2" d="M250,400h25v25h-6.13C258.45,425,250,413.81,250,400Z"/><rect class="cls-2" x="275" y="400" width="25" height="25"/><path class="cls-2" d="M300,425V400s16.34,7.82,25,1C325,401,325.43,425,300,425Z"/><rect class="cls-2" x="350" y="400" width="25" height="25"/><path class="cls-2" d="M425,425H400s7.82-16.34,1-25C401,400,425,399.57,425,425Z"/><path class="cls-2" d="M500,425H475s7.82-16.34,1-25C476,400,500,399.57,500,425Z"/><path class="cls-2" d="M562.5,400A12.5,12.5,0,1,1,550,412.5,12.5,12.5,0,0,1,562.5,400Z"/><path class="cls-2" d="M625,400h25s-7.83,16.34-1,25C649,425,625,425.43,625,400Z"/><path class="cls-2" d="M700,400v25s-16.34-7.82-25-1C675,424,674.57,400,700,400Z"/><rect class="cls-2" x="700" y="400" width="25" height="25"/><path class="cls-2" d="M800,400v25s-16.34-7.82-25-1C775,424,774.57,400,800,400Z"/><rect class="cls-2" x="800" y="400" width="25" height="25"/><rect class="cls-2" x="825" y="400" width="25" height="25"/><rect class="cls-2" x="50" y="425" width="25" height="25"/><path class="cls-2" d="M125,450H100s7.82-16.34,1-25C101,425,125,424.57,125,450Z"/><path class="cls-2" d="M250,450H225s7.82-16.34,1-25C226,425,250,424.57,250,450Z"/><path class="cls-2" d="M350,425v25H325v-6.13C325,433.44,336.19,425,350,425Z"/><rect class="cls-2" x="350" y="425" width="25" height="25"/><path class="cls-2" d="M400,425h25v25h-6.13C408.45,450,400,438.81,400,425Z"/><path class="cls-2" d="M425,450V425s16.34,7.82,25,1C450,426,450.43,450,425,450Z"/><rect class="cls-2" x="475" y="425" width="25" height="25"/><rect class="cls-2" x="500" y="425" width="25" height="25"/><path class="cls-2" d="M550,450H525V425h6.13C541.55,425,550,436.19,550,450Z"/><path class="cls-2" d="M600,425v25H575v-6.13C575,433.44,586.19,425,600,425Z"/><path class="cls-2" d="M625,450H600V425h6.13C616.55,425,625,436.19,625,450Z"/><rect class="cls-2" x="700" y="425" width="25" height="25"/><path class="cls-2" d="M775,450H750s7.82-16.34,1-25C751,425,775,424.57,775,450Z"/><rect class="cls-2" x="825" y="425" width="25" height="25"/><rect class="cls-2" x="50" y="450" width="25" height="25"/><rect class="cls-2" x="75" y="450" width="25" height="25"/><rect class="cls-2" x="100" y="450" width="25" height="25"/><rect class="cls-2" x="125" y="450" width="25" height="25"/><rect class="cls-2" x="150" y="450" width="25" height="25"/><rect class="cls-2" x="175" y="450" width="25" height="25"/><rect class="cls-2" x="200" y="450" width="25" height="25"/><rect class="cls-2" x="225" y="450" width="25" height="25"/><rect class="cls-2" x="250" y="450" width="25" height="25"/><path class="cls-2" d="M275,475V450s16.34,7.82,25,1C300,451,300.43,475,275,475Z"/><path class="cls-2" d="M325,450h25v25h-6.13C333.45,475,325,463.81,325,450Z"/><rect class="cls-2" x="350" y="450" width="25" height="25"/><path class="cls-2" d="M475,450h25v25h-6.13C483.45,475,475,463.81,475,450Z"/><rect class="cls-2" x="500" y="450" width="25" height="25"/><rect class="cls-2" x="525" y="450" width="25" height="25"/><rect class="cls-2" x="550" y="450" width="25" height="25"/><rect class="cls-2" x="575" y="450" width="25" height="25"/><rect class="cls-2" x="600" y="450" width="25" height="25"/><path class="cls-2" d="M662.5,450A12.5,12.5,0,1,1,650,462.5,12.5,12.5,0,0,1,662.5,450Z"/><path class="cls-2" d="M700,450h25s-7.83,16.34-1,25C724,475,700,475.43,700,450Z"/><path class="cls-2" d="M750,450h25v25h-6.13C758.45,475,750,463.81,750,450Z"/><path class="cls-2" d="M800,475H775V450h6.13C791.55,450,800,461.19,800,475Z"/><rect class="cls-2" x="825" y="450" width="25" height="25"/><path class="cls-2" d="M50,475H75v25H68.87C58.45,500,50,488.81,50,475Z"/><path class="cls-2" d="M75,500V475h25v6.13C100,491.55,88.81,500,75,500Z"/><path class="cls-2" d="M125,475h25s-7.83,16.34-1,25C149,500,125,500.43,125,475Z"/><path class="cls-2" d="M175,475h25s-7.83,16.34-1,25C199,500,175,500.43,175,475Z"/><rect class="cls-2" x="225" y="475" width="25" height="25"/><rect class="cls-2" x="250" y="475" width="25" height="25"/><path class="cls-2" d="M325,500H300s7.82-16.34,1-25C301,475,325,474.57,325,500Z"/><path class="cls-2" d="M350,475h25s-7.83,16.34-1,25C374,500,350,500.43,350,475Z"/><path class="cls-2" d="M475,500H450s7.82-16.34,1-25C451,475,475,474.57,475,500Z"/><path class="cls-2" d="M550,475h25v25h-6.13C558.45,500,550,488.81,550,475Z"/><rect class="cls-2" x="575" y="475" width="25" height="25"/><rect class="cls-2" x="600" y="475" width="25" height="25"/><path class="cls-2" d="M625,500V475s16.34,7.82,25,1C650,476,650.43,500,625,500Z"/><path class="cls-2" d="M737.5,475A12.5,12.5,0,1,1,725,487.5,12.5,12.5,0,0,1,737.5,475Z"/><path class="cls-2" d="M775,475h25s-7.83,16.34-1,25C799,500,775,500.43,775,475Z"/><rect class="cls-2" x="825" y="475" width="25" height="25"/><path class="cls-2" d="M875,500H850V475h6.13C866.55,475,875,486.19,875,500Z"/><path class="cls-2" d="M225,500v25s-16.34-7.82-25-1C200,524,199.57,500,225,500Z"/><rect class="cls-2" x="225" y="500" width="25" height="25"/><path class="cls-2" d="M250,525V500h25v6.13C275,516.55,263.81,525,250,525Z"/><path class="cls-2" d="M300,500h25v25h-6.13C308.45,525,300,513.81,300,500Z"/><path class="cls-2" d="M325,525V500s16.34,7.82,25,1C350,501,350.43,525,325,525Z"/><path class="cls-2" d="M400,500v25s-16.34-7.82-25-1C375,524,374.57,500,400,500Z"/><path class="cls-2" d="M425,525H400V500h6.13C416.55,500,425,511.19,425,525Z"/><path class="cls-2" d="M450,500h25s-7.83,16.34-1,25C474,525,450,525.43,450,500Z"/><path class="cls-2" d="M525,525H500s7.82-16.34,1-25C501,500,525,499.57,525,525Z"/><path class="cls-2" d="M600,500h25s-7.83,16.34-1,25C624,525,600,525.43,600,500Z"/><path class="cls-2" d="M687.5,500A12.5,12.5,0,1,1,675,512.5,12.5,12.5,0,0,1,687.5,500Z"/><path class="cls-2" d="M825,500v25s-16.34-7.82-25-1C800,524,799.57,500,825,500Z"/><rect class="cls-2" x="825" y="500" width="25" height="25"/><path class="cls-2" d="M850,525V500h25v6.13C875,516.55,863.81,525,850,525Z"/><path class="cls-2" d="M75,550H50s7.82-16.34,1-25C51,525,75,524.57,75,550Z"/><path class="cls-2" d="M112.5,525A12.5,12.5,0,1,1,100,537.5,12.5,12.5,0,0,1,112.5,525Z"/><path class="cls-2" d="M175,525v25s-16.34-7.82-25-1C150,549,149.57,525,175,525Z"/><path class="cls-2" d="M200,550H175V525h6.13C191.55,525,200,536.19,200,550Z"/><path class="cls-2" d="M225,525h25s-7.83,16.34-1,25C249,550,225,550.43,225,525Z"/><path class="cls-2" d="M375,550H350s7.82-16.34,1-25C351,525,375,524.57,375,550Z"/><path class="cls-2" d="M400,525h25v25h-6.13C408.45,550,400,538.81,400,525Z"/><path class="cls-2" d="M425,550V525s16.34,7.82,25,1C450,526,450.43,550,425,550Z"/><path class="cls-2" d="M500,525v25H475v-6.13C475,533.44,486.19,525,500,525Z"/><rect class="cls-2" x="500" y="525" width="25" height="25"/><path class="cls-2" d="M575,525v25s-16.34-7.82-25-1C550,549,549.57,525,575,525Z"/><path class="cls-2" d="M575,550V525s16.34,7.82,25,1C600,526,600.43,550,575,550Z"/><path class="cls-2" d="M662.5,525A12.5,12.5,0,1,1,650,537.5,12.5,12.5,0,0,1,662.5,525Z"/><path class="cls-2" d="M725,525v25s-16.34-7.82-25-1C700,549,699.57,525,725,525Z"/><path class="cls-2" d="M725,550V525s16.34,7.82,25,1C750,526,750.43,550,725,550Z"/><rect class="cls-2" x="825" y="525" width="25" height="25"/><path class="cls-2" d="M50,550H75v25H68.87C58.45,575,50,563.81,50,550Z"/><path class="cls-2" d="M75,575V550s16.34,7.82,25,1C100,551,100.43,575,75,575Z"/><path class="cls-2" d="M175,550h25v25h-6.13C183.45,575,175,563.81,175,550Z"/><path class="cls-2" d="M200,575V550s16.34,7.82,25,1C225,551,225.43,575,200,575Z"/><path class="cls-2" d="M275,575H250s7.82-16.34,1-25C251,550,275,549.57,275,575Z"/><path class="cls-2" d="M350,550h25v25h-6.13C358.45,575,350,563.81,350,550Z"/><path class="cls-2" d="M375,575V550s16.34,7.82,25,1C400,551,400.43,575,375,575Z"/><path class="cls-2" d="M475,550v25H450v-6.13C450,558.44,461.19,550,475,550Z"/><rect class="cls-2" x="475" y="550" width="25" height="25"/><rect class="cls-2" x="500" y="550" width="25" height="25"/><path class="cls-2" d="M625,550v25H600v-6.13C600,558.44,611.19,550,625,550Z"/><path class="cls-2" d="M625,575V550s16.34,7.82,25,1C650,551,650.43,575,625,575Z"/><path class="cls-2" d="M700,575H675s7.82-16.34,1-25C676,550,700,549.57,700,575Z"/><path class="cls-2" d="M762.5,550A12.5,12.5,0,1,1,750,562.5,12.5,12.5,0,0,1,762.5,550Z"/><rect class="cls-2" x="825" y="550" width="25" height="25"/><path class="cls-2" d="M875,575H850V550h6.13C866.55,550,875,561.19,875,575Z"/><rect class="cls-2" x="250" y="575" width="25" height="25"/><rect class="cls-2" x="275" y="575" width="25" height="25"/><path class="cls-2" d="M325,600H300V575h6.13C316.55,575,325,586.19,325,600Z"/><path class="cls-2" d="M425,575v25s-16.34-7.82-25-1C400,599,399.57,575,425,575Z"/><rect class="cls-2" x="425" y="575" width="25" height="25"/><path class="cls-2" d="M450,600V575h25v6.13C475,591.55,463.81,600,450,600Z"/><path class="cls-2" d="M500,575h25v25h-6.13C508.45,600,500,588.81,500,575Z"/><rect class="cls-2" x="525" y="575" width="25" height="25"/><rect class="cls-2" x="550" y="575" width="25" height="25"/><rect class="cls-2" x="575" y="575" width="25" height="25"/><rect class="cls-2" x="600" y="575" width="25" height="25"/><path class="cls-2" d="M675,575v25H650v-6.13C650,583.44,661.19,575,675,575Z"/><path class="cls-2" d="M675,600V575h25v6.13C700,591.55,688.81,600,675,600Z"/><path class="cls-2" d="M800,575v25s-16.34-7.82-25-1C775,599,774.57,575,800,575Z"/><rect class="cls-2" x="800" y="575" width="25" height="25"/><rect class="cls-2" x="825" y="575" width="25" height="25"/><rect class="cls-2" x="850" y="575" width="25" height="25"/><path class="cls-2" d="M75,600v25s-16.34-7.82-25-1C50,624,49.57,600,75,600Z"/><path class="cls-2" d="M100,625H75V600h6.13C91.55,600,100,611.19,100,625Z"/><path class="cls-2" d="M150,625H125s7.82-16.34,1-25C126,600,150,599.57,150,625Z"/><path class="cls-2" d="M225,600v25s-16.34-7.82-25-1C200,624,199.57,600,225,600Z"/><rect class="cls-2" x="225" y="600" width="25" height="25"/><rect class="cls-2" x="250" y="600" width="25" height="25"/><rect class="cls-2" x="275" y="600" width="25" height="25"/><rect class="cls-2" x="300" y="600" width="25" height="25"/><path class="cls-2" d="M325,625V600s16.34,7.82,25,1C350,601,350.43,625,325,625Z"/><path class="cls-2" d="M387.5,600A12.5,12.5,0,1,1,375,612.5,12.5,12.5,0,0,1,387.5,600Z"/><path class="cls-2" d="M425,600h25s-7.83,16.34-1,25C449,625,425,625.43,425,600Z"/><path class="cls-2" d="M487.5,600A12.5,12.5,0,1,1,475,612.5,12.5,12.5,0,0,1,487.5,600Z"/><path class="cls-2" d="M550,600h25s-7.83,16.34-1,25C574,625,550,625.43,550,600Z"/><path class="cls-2" d="M600,600h25s-7.83,16.34-1,25C624,625,600,625.43,600,600Z"/><path class="cls-2" d="M650,600h25s-7.83,16.34-1,25C674,625,650,625.43,650,600Z"/><path class="cls-2" d="M725,600v25s-16.34-7.82-25-1C700,624,699.57,600,725,600Z"/><path class="cls-2" d="M750,625H725V600h6.13C741.55,600,750,611.19,750,625Z"/><path class="cls-2" d="M800,600h25s-7.83,16.34-1,25C824,625,800,625.43,800,600Z"/><path class="cls-2" d="M850,600h25s-7.83,16.34-1,25C874,625,850,625.43,850,600Z"/><path class="cls-2" d="M75,625h25v25H93.87C83.45,650,75,638.81,75,625Z"/><rect class="cls-2" x="100" y="625" width="25" height="25"/><path class="cls-2" d="M125,650V625h25v6.13C150,641.55,138.81,650,125,650Z"/><path class="cls-2" d="M250,625h25s-7.83,16.34-1,25C274,650,250,650.43,250,625Z"/><path class="cls-2" d="M425,650H400s7.82-16.34,1-25C401,625,425,624.57,425,650Z"/><path class="cls-2" d="M462.5,625A12.5,12.5,0,1,1,450,637.5,12.5,12.5,0,0,1,462.5,625Z"/><path class="cls-2" d="M512.5,625A12.5,12.5,0,1,1,500,637.5,12.5,12.5,0,0,1,512.5,625Z"/><path class="cls-2" d="M600,650H575s7.82-16.34,1-25C576,625,600,624.57,600,650Z"/><path class="cls-2" d="M650,650H625s7.82-16.34,1-25C626,625,650,624.57,650,650Z"/><rect class="cls-2" x="725" y="625" width="25" height="25"/><rect class="cls-2" x="750" y="625" width="25" height="25"/><path class="cls-2" d="M775,650V625s16.34,7.82,25,1C800,626,800.43,650,775,650Z"/><path class="cls-2" d="M62.5,650A12.5,12.5,0,1,1,50,662.5,12.5,12.5,0,0,1,62.5,650Z"/><path class="cls-2" d="M100,650h25s-7.83,16.34-1,25C124,675,100,675.43,100,650Z"/><path class="cls-2" d="M212.5,650A12.5,12.5,0,1,1,200,662.5,12.5,12.5,0,0,1,212.5,650Z"/><path class="cls-2" d="M337.5,650A12.5,12.5,0,1,1,325,662.5,12.5,12.5,0,0,1,337.5,650Z"/><path class="cls-2" d="M400,650h25v25h-6.13C408.45,675,400,663.81,400,650Z"/><path class="cls-2" d="M425,675V650s16.34,7.82,25,1C450,651,450.43,675,425,675Z"/><path class="cls-2" d="M487.5,650A12.5,12.5,0,1,1,475,662.5,12.5,12.5,0,0,1,487.5,650Z"/><path class="cls-2" d="M550,650v25H525v-6.13C525,658.44,536.19,650,550,650Z"/><rect class="cls-2" x="550" y="650" width="25" height="25"/><path class="cls-2" d="M575,675V650h25v6.13C600,666.55,588.81,675,575,675Z"/><path class="cls-2" d="M625,650h25v25h-6.13C633.45,675,625,663.81,625,650Z"/><rect class="cls-2" x="650" y="650" width="25" height="25"/><rect class="cls-2" x="675" y="650" width="25" height="25"/><rect class="cls-2" x="700" y="650" width="25" height="25"/><rect class="cls-2" x="725" y="650" width="25" height="25"/><rect class="cls-2" x="750" y="650" width="25" height="25"/><path class="cls-2" d="M275,675v25s-16.34-7.82-25-1C250,699,249.57,675,275,675Z"/><path class="cls-2" d="M300,700H275V675h6.13C291.55,675,300,686.19,300,700Z"/><path class="cls-2" d="M375,700H350s7.82-16.34,1-25C351,675,375,674.57,375,700Z"/><path class="cls-2" d="M525,675v25s-16.34-7.82-25-1C500,699,499.57,675,525,675Z"/><rect class="cls-2" x="525" y="675" width="25" height="25"/><path class="cls-2" d="M550,700V675h25v6.13C575,691.55,563.81,700,550,700Z"/><rect class="cls-2" x="650" y="675" width="25" height="25"/><rect class="cls-2" x="750" y="675" width="25" height="25"/><path class="cls-2" d="M800,700H775V675h6.13C791.55,675,800,686.19,800,700Z"/><path class="cls-2" d="M850,675v25s-16.34-7.82-25-1C825,699,824.57,675,850,675Z"/><path class="cls-2" d="M850,700V675s16.34,7.82,25,1C875,676,875.43,700,850,700Z"/><rect class="cls-2" x="275" y="700" width="25" height="25"/><path class="cls-2" d="M350,700h25s-7.83,16.34-1,25C374,725,350,725.43,350,700Z"/><path class="cls-2" d="M587.5,700A12.5,12.5,0,1,1,575,712.5,12.5,12.5,0,0,1,587.5,700Z"/><rect class="cls-2" x="650" y="700" width="25" height="25"/><path class="cls-2" d="M712.5,700A12.5,12.5,0,1,1,700,712.5,12.5,12.5,0,0,1,712.5,700Z"/><rect class="cls-2" x="750" y="700" width="25" height="25"/><rect class="cls-2" x="775" y="700" width="25" height="25"/><path class="cls-2" d="M800,725V700s16.34,7.82,25,1C825,701,825.43,725,800,725Z"/><path class="cls-2" d="M275,725v25s-16.34-7.82-25-1C250,749,249.57,725,275,725Z"/><rect class="cls-2" x="275" y="725" width="25" height="25"/><rect class="cls-2" x="300" y="725" width="25" height="25"/><path class="cls-2" d="M350,750H325V725h6.13C341.55,725,350,736.19,350,750Z"/><path class="cls-2" d="M400,725v25H375v-6.13C375,733.44,386.19,725,400,725Z"/><rect class="cls-2" x="400" y="725" width="25" height="25"/><path class="cls-2" d="M425,750V725s16.34,7.82,25,1C450,726,450.43,750,425,750Z"/><rect class="cls-2" x="650" y="725" width="25" height="25"/><rect class="cls-2" x="750" y="725" width="25" height="25"/><path class="cls-2" d="M850,725v25s-16.34-7.82-25-1C825,749,824.57,725,850,725Z"/><path class="cls-2" d="M875,750H850V725h6.13C866.55,725,875,736.19,875,750Z"/><path class="cls-2" d="M275,750h25s-7.83,16.34-1,25C299,775,275,775.43,275,750Z"/><path class="cls-2" d="M325,750h25s-7.83,16.34-1,25C349,775,325,775.43,325,750Z"/><rect class="cls-2" x="375" y="750" width="25" height="25"/><rect class="cls-2" x="400" y="750" width="25" height="25"/><path class="cls-2" d="M462.5,750A12.5,12.5,0,1,1,450,762.5,12.5,12.5,0,0,1,462.5,750Z"/><path class="cls-2" d="M550,775H525s7.82-16.34,1-25C526,750,550,749.57,550,775Z"/><path class="cls-2" d="M612.5,750A12.5,12.5,0,1,1,600,762.5,12.5,12.5,0,0,1,612.5,750Z"/><rect class="cls-2" x="650" y="750" width="25" height="25"/><rect class="cls-2" x="675" y="750" width="25" height="25"/><rect class="cls-2" x="700" y="750" width="25" height="25"/><rect class="cls-2" x="725" y="750" width="25" height="25"/><rect class="cls-2" x="750" y="750" width="25" height="25"/><path class="cls-2" d="M800,775H775V750h6.13C791.55,750,800,761.19,800,775Z"/><path class="cls-2" d="M850,750h25s-7.83,16.34-1,25C874,775,850,775.43,850,750Z"/><path class="cls-2" d="M262.5,775A12.5,12.5,0,1,1,250,787.5,12.5,12.5,0,0,1,262.5,775Z"/><path class="cls-2" d="M375,775v25H350v-6.13C350,783.44,361.19,775,375,775Z"/><rect class="cls-2" x="375" y="775" width="25" height="25"/><rect class="cls-2" x="400" y="775" width="25" height="25"/><path class="cls-2" d="M425,800V775s16.34,7.82,25,1C450,776,450.43,800,425,800Z"/><path class="cls-2" d="M525,775h25v25h-6.13C533.45,800,525,788.81,525,775Z"/><rect class="cls-2" x="550" y="775" width="25" height="25"/><path class="cls-2" d="M575,800V775s16.34,7.82,25,1C600,776,600.43,800,575,800Z"/><path class="cls-2" d="M650,775v25H625v-6.13C625,783.44,636.19,775,650,775Z"/><rect class="cls-2" x="650" y="775" width="25" height="25"/><path class="cls-2" d="M700,775h25s-7.83,16.34-1,25C724,800,700,800.43,700,775Z"/><rect class="cls-2" x="750" y="775" width="25" height="25"/><path class="cls-2" d="M775,800V775h25v6.13C800,791.55,788.81,800,775,800Z"/><path class="cls-2" d="M837.5,775A12.5,12.5,0,1,1,825,787.5,12.5,12.5,0,0,1,837.5,775Z"/><path class="cls-2" d="M350,800v25s-16.34-7.82-25-1C325,824,324.57,800,350,800Z"/><rect class="cls-2" x="350" y="800" width="25" height="25"/><path class="cls-2" d="M500,825H475s7.82-16.34,1-25C476,800,500,799.57,500,825Z"/><path class="cls-2" d="M625,800h25v25h-6.13C633.45,825,625,813.81,625,800Z"/><rect class="cls-2" x="650" y="800" width="25" height="25"/><path class="cls-2" d="M700,825H675V800h6.13C691.55,800,700,811.19,700,825Z"/><path class="cls-2" d="M750,800h25s-7.83,16.34-1,25C774,825,750,825.43,750,800Z"/><path class="cls-2" d="M812.5,800A12.5,12.5,0,1,1,800,812.5,12.5,12.5,0,0,1,812.5,800Z"/><path class="cls-2" d="M862.5,800A12.5,12.5,0,1,1,850,812.5,12.5,12.5,0,0,1,862.5,800Z"/><path class="cls-2" d="M350,825h25v25h-6.13C358.45,850,350,838.81,350,825Z"/><path class="cls-2" d="M400,850H375V825h6.13C391.55,825,400,836.19,400,850Z"/><path class="cls-2" d="M450,825v25s-16.34-7.82-25-1C425,849,424.57,825,450,825Z"/><rect class="cls-2" x="450" y="825" width="25" height="25"/><rect class="cls-2" x="475" y="825" width="25" height="25"/><path class="cls-2" d="M500,850V825s16.34,7.82,25,1C525,826,525.43,850,500,850Z"/><path class="cls-2" d="M600,850H575s7.82-16.34,1-25C576,825,600,824.57,600,850Z"/><rect class="cls-2" x="650" y="825" width="25" height="25"/><rect class="cls-2" x="675" y="825" width="25" height="25"/><path class="cls-2" d="M262.5,850A12.5,12.5,0,1,1,250,862.5,12.5,12.5,0,0,1,262.5,850Z"/><path class="cls-2" d="M337.5,850A12.5,12.5,0,1,1,325,862.5,12.5,12.5,0,0,1,337.5,850Z"/><path class="cls-2" d="M375,850h25v25h-6.13C383.45,875,375,863.81,375,850Z"/><path class="cls-2" d="M400,875V850s16.34,7.82,25,1C425,851,425.43,875,400,875Z"/><path class="cls-2" d="M450,850h25s-7.83,16.34-1,25C474,875,450,875.43,450,850Z"/><path class="cls-2" d="M575,850h25s-7.83,16.34-1,25C599,875,575,875.43,575,850Z"/><path class="cls-2" d="M650,850h25v25h-6.13C658.45,875,650,863.81,650,850Z"/><path class="cls-2" d="M675,875V850h25v6.13C700,866.55,688.81,875,675,875Z"/><path class="cls-2" d="M775,850v25s-16.34-7.82-25-1C750,874,749.57,850,775,850Z"/><rect class="cls-2" x="775" y="850" width="25" height="25"/><rect class="cls-2" x="800" y="850" width="25" height="25"/><path class="cls-2" d="M825,875V850s16.34,7.82,25,1C850,851,850.43,875,825,875Z"/><rect class="cls-1" x="76.25" y="76.25" width="122.5" height="122.5"/><path class="cls-2" d="M198.75,50H50V225H225V50Zm0,148.75H76.25V76.25h122.5Z"/><rect class="cls-1" x="726.25" y="76.25" width="122.5" height="122.5"/><path class="cls-2" d="M848.75,50H700V225H875V50Zm0,148.75H726.25V76.25h122.5Z"/><rect class="cls-1" x="76.25" y="726.25" width="122.5" height="122.5"/><path class="cls-2" d="M198.75,700H50V875H225V700Zm0,148.75H76.25V726.25h122.5Z"/><rect class="cls-2" x="100" y="100" width="75" height="75"/><rect class="cls-2" x="750" y="100" width="75" height="75"/><rect class="cls-2" x="100" y="750" width="75" height="75"/></svg>